<svg width="600" height="600" viewBox="0 0 600 600" fill="none" xmlns="http://www.w3.org/2000/svg">
<path d="M300 600C240.667 600 182.664 582.407 133.329 549.44C83.9943 516.477 45.5427 469.623 22.8363 414.807C0.130015 359.987 -5.81099 299.667 5.76468 241.473C17.34 183.279 45.9124 129.824 87.868 87.868C129.824 45.9123 183.279 17.34 241.473 5.76462C299.667 -5.81105 359.987 0.129954 414.807 22.8363C469.623 45.5426 516.477 83.9943 549.44 133.329C582.407 182.664 600 240.667 600 300C600 379.567 568.393 455.87 512.133 512.133C455.87 568.393 379.567 600 300 600ZM300 50C250.553 50 202.22 64.6623 161.108 92.1326C119.995 119.603 87.952 158.648 69.0303 204.329C50.1083 250.01 45.1577 300.277 54.8037 348.773C64.45 397.267 88.2603 441.813 123.223 476.777C158.187 511.74 202.732 535.55 251.227 545.197C299.723 554.843 349.99 549.893 395.67 530.97C441.353 512.047 480.397 480.003 507.867 438.893C535.337 397.78 550 349.447 550 300C550 233.697 523.66 170.108 476.777 123.223C429.893 76.3393 366.303 50 300 50Z" fill="black"/>
<path d="M300 458.333C296.717 458.35 293.46 457.71 290.427 456.45C287.393 455.19 284.643 453.337 282.333 451L149.001 317.667C144.585 312.93 142.181 306.66 142.295 300.183C142.409 293.707 145.033 287.527 149.614 282.947C154.194 278.367 160.374 275.743 166.85 275.63C173.327 275.513 179.595 277.92 184.334 282.333L300 398L415.667 282.333C420.407 277.92 426.677 275.513 433.153 275.63C439.63 275.743 445.807 278.367 450.39 282.947C454.97 287.527 457.593 293.707 457.707 300.183C457.82 306.66 455.417 312.93 451 317.667L317.667 451C315.36 453.337 312.607 455.19 309.573 456.45C306.54 457.71 303.287 458.35 300 458.333Z" fill="black"/>
<path d="M300 458.333C293.397 458.247 287.087 455.587 282.417 450.917C277.747 446.247 275.087 439.937 275 433.333V166.667C275 160.036 277.633 153.677 282.323 148.989C287.01 144.301 293.37 141.667 300 141.667C306.63 141.667 312.99 144.301 317.677 148.989C322.367 153.677 325 160.036 325 166.667V433.333C324.913 439.937 322.253 446.247 317.583 450.917C312.913 455.587 306.603 458.247 300 458.333Z" fill="black"/>
</svg>
