<svg width="651" height="587" viewBox="0 0 651 587" fill="none" xmlns="http://www.w3.org/2000/svg">
<path d="M422.875 196.125H617.625V488.25C617.625 518.852 617.625 534.153 608.118 543.66C598.611 553.167 583.31 553.167 552.708 553.167H422.875V196.125Z" stroke="#33363F" stroke-width="66.6667" stroke-linecap="round"/>
<path d="M33.375 196.125H228.125V553.167H98.2917C67.6896 553.167 52.3888 553.167 42.8817 543.66C33.375 534.153 33.375 518.852 33.375 488.25V196.125Z" stroke="#33363F" stroke-width="66.6667" stroke-linecap="round"/>
<path d="M422.875 196.125H228.125V553.167H422.875V196.125Z" stroke="#33363F" stroke-width="66.6667" stroke-linecap="round"/>
<path d="M33.375 98.7499C33.375 68.1479 33.375 52.847 42.8817 43.34C52.3888 33.8333 67.6896 33.8333 98.2917 33.8333H552.708C583.31 33.8333 598.611 33.8333 608.118 43.34C617.625 52.847 617.625 68.1479 617.625 98.7499V196.125H33.375V98.7499Z" stroke="#33363F" stroke-width="66.6667" stroke-linecap="round"/>
</svg>
